<svg xmlns="http://www.w3.org/2000/svg" width="34" height="34" fill="none"><mask id="a" width="34" height="34" x="0" y="0" maskUnits="userSpaceOnUse" style="mask-type:alpha"><circle cx="17" cy="17" r="17" fill="#D9D9D9"/></mask><g mask="url(#a)"><path fill="#008259" d="M0 0h34v34H0z"/><path fill="#F1B434" d="M17 6.611 31.167 17 17 27.389 2.833 17 17 6.611Z"/><path fill="#004692" d="M17.236 23.611c3.52 0 6.375-2.96 6.375-6.611s-2.854-6.611-6.375-6.611c-3.52 0-6.375 2.96-6.375 6.611s2.854 6.611 6.375 6.611Z"/><path fill="#F5F7F8" d="M10.956 15.855a11.61 11.61 0 0 1 2.502-.272c3.747 0 7.132 1.794 9.352 4.628a6.748 6.748 0 0 0 .781-2.685c-2.602-2.66-6.181-4.304-10.133-4.304-.509 0-1.012.027-1.508.08a6.713 6.713 0 0 0-.994 2.553Z"/></g></svg>