<svg xmlns="http://www.w3.org/2000/svg" width="34" height="34" fill="none"><mask id="a" width="34" height="34" x="0" y="0" maskUnits="userSpaceOnUse" style="mask-type:alpha"><circle cx="17" cy="17" r="17" fill="#D9D9D9"/></mask><mask id="b" width="34" height="34" x="0" y="0" maskUnits="userSpaceOnUse" style="mask-type:alpha"><circle cx="17" cy="17" r="17" fill="#D9D9D9"/></mask><g mask="url(#b)"><path fill="#F5F7F8" d="M0 29.75V0h34v29.75z"/><path fill="#DD2033" d="M17 8.5V4.25h17V8.5zM17 17v-4.25h17V17zM0 25.5v-4.25h34v4.25zM0 34v-4.25h34V34z"/><path fill="#004692" d="M0 17V0h17v17z"/><path fill="#F5F7F8" d="m13.411 10.389-.845 1.91-1.988.254 1.467 1.435-.385 2.067 1.751-1.18 1.751 1.18-.385-2.067 1.467-1.435-1.988-.254-.845-1.91ZM13.411-.944l-.845 1.91-1.988.254 1.467 1.435-.385 2.067 1.751-1.18 1.751 1.18-.385-2.067 1.467-1.435-1.988-.254-.845-1.91ZM9.633 4.722l-.844 1.91-1.989.255 1.467 1.435-.385 2.067 1.751-1.18 1.751 1.18L11 8.322l1.467-1.435-1.99-.254-.844-1.91ZM5.383 10.389l-.844 1.91-1.989.254 1.467 1.435-.385 2.067 1.751-1.18 1.751 1.18-.384-2.067 1.467-1.435-1.99-.254-.844-1.91ZM5.383-.944 4.54.966 2.55 1.22l1.467 1.435-.385 2.067 1.751-1.18 1.751 1.18-.384-2.067L8.217 1.22 6.227.966l-.844-1.91ZM1.606 4.722.76 6.632l-1.989.255L.24 8.322l-.385 2.067 1.752-1.18 1.75 1.18-.384-2.067 1.467-1.435-1.989-.254-.844-1.91Z"/></g></svg>